<svg width="808" height="513" viewBox="0 0 808 513" fill="none" xmlns="http://www.w3.org/2000/svg">
<path d="M562 13.2933C562.4 13.5833 562.4 13.5833 564.44 15.0633C577.42 24.9633 587.68 36.9833 597 50.2933C597.44 50.9233 597.88 51.5433 598.33 52.1933C610.05 69.0533 619.68 87.0233 629 105.293C629.38 106.043 629.77 106.793 630.16 107.573C632.48 112.123 634.75 116.703 637 121.293C637.159 121.623 637.16 121.623 637.98 123.283C649.12 145.873 658.609 169.243 667.5 192.793C667.789 193.553 668.07 194.303 668.36 195.083C670 199.413 671.609 203.753 673.2 208.103C673.75 209.613 674.31 211.123 674.86 212.623C675.72 214.933 676.56 217.253 677.41 219.573C677.67 220.273 677.93 220.973 678.2 221.703C679.51 225.353 680.31 228.413 680 232.293C664.4 239.093 648.45 241.653 631.5 241.543C630.25 241.553 629 241.563 627.72 241.563C626.52 241.563 625.33 241.563 624.09 241.563C623.02 241.553 621.94 241.553 620.83 241.553C617.94 241.283 616.33 241.013 614 239.293C613.02 237.263 613.02 237.263 612.32 234.713C612.04 233.733 611.76 232.763 611.47 231.753C611.17 230.673 610.87 229.593 610.56 228.483C609.86 226.093 609.15 223.703 608.44 221.313C608.35 220.993 608.35 220.993 607.86 219.383C597.38 184.533 583.7 150.113 568 117.293C567.6 116.463 567.2 115.623 566.79 114.763C546.87 73.3733 546.87 73.3733 530.5 65.3533C525.39 63.8033 521.56 63.0633 516.7 65.3933C505.9 72.1733 500.79 82.3233 495 93.2933C494.41 94.3933 493.82 95.4833 493.22 96.6133C487.08 108.863 483.27 122.103 479.06 135.103C478.23 137.593 477.36 140.033 476.41 142.473C474.46 147.533 473.11 152.763 471.69 157.983C471.07 160.213 470.45 162.453 469.83 164.693C469.52 165.803 469.22 166.913 468.9 168.063C467.83 171.893 466.73 175.713 465.62 179.533C463.19 187.913 460.96 196.313 458.89 204.783C457.43 210.703 455.82 216.563 454.12 222.413C449.3 239.083 444.73 255.833 440.69 272.713C439.59 277.223 438.27 281.593 436.77 285.983C435.42 290.043 434.28 294.173 433.12 298.293C416.3 357.993 397.6 422.193 358 471.293C357.76 471.593 357.76 471.593 356.57 473.083C340.19 493.503 319.46 508.603 293 512.293C269.84 513.893 252.02 504.323 234.91 489.663C228.19 483.783 222.45 477.363 217 470.293C216.21 469.323 215.42 468.343 214.61 467.343C207.55 458.493 201.73 449.043 196 439.293C195.65 438.703 195.29 438.103 194.93 437.493C166.71 389.943 146.32 338.273 129.19 285.853C128.97 285.193 128.75 284.533 128.53 283.853C127.92 282.003 127.33 280.153 126.73 278.293C126.39 277.253 126.06 276.213 125.71 275.133C125.02 272.393 124.86 270.103 125 267.293C132.43 264.393 139.76 262.233 147.56 260.603C148.53 260.393 149.49 260.183 150.48 259.963C158.84 258.173 167.06 257.133 175.62 257.233C176.65 257.243 177.67 257.253 178.73 257.253C179.48 257.273 180.23 257.283 181 257.293C183.11 262.883 185.09 268.483 186.8 274.213C189.14 281.843 191.72 289.393 194.38 296.913C194.63 297.643 194.89 298.363 195.15 299.113C210.79 343.353 228.15 389.563 255 428.293C255.44 428.973 255.88 429.643 256.33 430.343C261.36 437.923 270.26 446.173 279.06 448.943C287.1 450.403 293.44 448.263 300 443.733C332.45 417.873 343.15 362.543 355.18 324.843C355.73 323.143 356.28 321.433 356.82 319.733C359.89 310.153 362.85 300.593 365.38 290.853C370.43 271.763 375.95 252.813 381.5 233.863C383.08 228.473 384.63 223.083 386.16 217.683C390.08 203.853 394.19 190.093 398.38 176.343C399 174.293 399.62 172.243 400.24 170.193C415.52 119.613 432.05 65.3233 468 25.2933C468.3 24.9533 468.3 24.9533 469.79 23.2433C494.33 -3.16671 533.04 -7.88671 562 13.2933Z" fill="#EE5D0C"/>
<path d="M807 184.293C807.33 184.953 807.66 185.613 808 186.293C806.85 189.473 805.14 192.433 803.56 195.413C803.32 195.883 803.32 195.883 802.09 198.223C786.84 226.473 766.53 253.453 742 274.293C741.57 274.673 741.57 274.673 739.39 276.563C726.66 287.473 712.84 296.533 698 304.293C697.36 304.633 696.71 304.973 696.05 305.323C665.36 321.363 632.21 327.043 598 326.293C597.38 326.283 597.38 326.283 594.23 326.243C548.4 324.323 505.58 301.253 469 275.293C469.52 269.153 470.57 263.803 472.56 257.983C475.38 249.413 477.92 240.783 480.38 232.103C480.73 230.843 481.09 229.583 481.46 228.283C482.31 225.293 483.16 222.293 484 219.293C487.55 220.673 490.57 222.183 493.75 224.293C530.8 248.213 570.69 263.783 615.31 263.673C616.14 263.663 616.97 263.663 617.82 263.663C665.57 263.503 714.43 247.153 755 222.293C755.43 222.033 755.43 222.033 757.59 220.703C768.85 213.773 779.74 206.643 790 198.293C790.91 197.573 791.82 196.853 792.76 196.113C797.6 192.283 802.34 188.343 807 184.293Z" fill="#C71421"/>
<path d="M266 182.293C266.78 182.523 267.57 182.743 268.37 182.983C283.2 187.383 297.12 193.513 311 200.293C311.79 200.673 312.58 201.063 313.39 201.453C324.73 207.053 335.22 213.803 345.74 220.803C349.12 223.033 352.55 225.173 356 227.293C353.49 238.103 350.26 248.683 347 259.293C346.77 260.043 346.54 260.793 346.3 261.563C343.65 270.183 340.89 278.753 338 287.293C332.11 284.063 326.61 280.383 321.06 276.603C312.26 270.693 303.4 265.183 294 260.293C293.32 259.933 292.65 259.573 291.95 259.203C235.72 229.653 171.82 230.023 111.98 248.003C101.26 251.363 90.95 255.563 80.69 260.113C78.2 261.203 75.71 262.263 73.21 263.323C49.51 273.393 27.37 287.123 6.67999 302.403C4.48999 303.953 2.44 305.193 0 306.293C1.51 301.903 3.86 298.333 6.56 294.603C7.01 293.993 7.45 293.373 7.91 292.733C11.28 288.123 14.92 283.863 18.82 279.693C21.01 277.283 23 274.793 25 272.233C29.33 266.873 34.08 261.993 38.94 257.103C39.7 256.333 40.45 255.573 41.24 254.783C41.95 254.073 42.67 253.353 43.4 252.623C44.05 251.983 44.69 251.343 45.36 250.683C47 249.293 47 249.293 49 249.293C49.17 248.793 49.17 248.793 50 246.293C52.43 243.713 55.28 241.543 58 239.293C58.55 238.833 59.09 238.383 59.65 237.913C117.24 189.793 191.05 160.633 266 182.293Z" fill="#E44A05"/>
<path d="M175.625 257.231C176.135 257.231 176.135 257.231 178.725 257.261C179.475 257.271 180.225 257.281 181.005 257.291C183.105 262.881 185.095 268.481 186.805 274.211C189.135 281.851 191.715 289.391 194.375 296.921C194.505 297.281 194.505 297.281 195.145 299.111C210.785 343.351 228.155 389.571 255.005 428.291C255.435 428.971 255.875 429.641 256.325 430.341C261.365 437.921 270.265 446.171 279.065 448.941C286.905 450.361 293.205 447.981 300.005 444.291C300.305 445.321 300.615 446.351 300.935 447.421C305.925 460.741 316.125 473.391 327.005 482.291C328.255 483.351 329.505 484.411 330.745 485.481C331.285 485.931 331.815 486.371 332.355 486.841C334.325 488.581 336.155 490.421 338.005 492.291C320.135 506.331 299.575 514.541 276.605 511.901C252.035 507.521 231.805 489.481 217.005 470.291C216.605 469.811 216.605 469.811 214.605 467.341C207.545 458.491 201.725 449.041 196.005 439.291C195.645 438.701 195.295 438.111 194.935 437.491C166.705 389.941 146.325 338.271 129.185 285.851C128.975 285.201 128.755 284.541 128.525 283.861C127.925 282.011 127.325 280.151 126.735 278.301C126.395 277.251 126.055 276.211 125.715 275.131C125.025 272.391 124.855 270.111 125.005 267.291C132.425 264.391 139.765 262.231 147.565 260.611C148.525 260.391 149.485 260.181 150.485 259.961C158.845 258.171 167.065 257.131 175.625 257.231Z" fill="#023591"/>
<path d="M457 307.293C457.47 307.653 457.95 308.003 458.44 308.373C459.85 309.423 461.25 310.483 462.66 311.543C464.17 312.663 465.67 313.793 467.17 314.923C478.17 323.183 489.31 331.043 501 338.293C501.64 338.693 502.29 339.093 502.95 339.503C507.26 342.173 511.61 344.763 516 347.293C516.29 347.463 516.29 347.463 517.79 348.323C538.74 360.333 562.78 369.603 587 371.293C587.96 371.363 588.92 371.433 589.91 371.503C602.75 371.983 617.38 369.093 627.19 360.333C629.9 357.373 631.76 354.893 633.25 351.133C635 348.293 635 348.293 638.09 347.333C639.36 347.193 640.63 347.063 641.94 346.913C663.81 343.823 687.05 331.493 701 314.293C701.33 314.293 701.66 314.293 702 314.293C703.81 343.713 693 370.063 674.33 392.273C655.44 412.683 625.66 423.853 598.35 425.513C594.46 425.633 590.58 425.683 586.69 425.673C585.99 425.663 585.3 425.663 584.59 425.663C564.28 425.593 545.16 421.943 526 415.293C525.26 415.033 524.52 414.783 523.76 414.513C494.88 404.283 458.92 388.213 437 366.293C437.3 360.443 439.89 355.053 442 349.673C446.13 338.933 449.74 328.093 453.17 317.123C453.53 315.983 453.88 314.843 454.25 313.673C454.56 312.653 454.88 311.643 455.2 310.593C456 308.293 456 308.293 457 307.293Z" fill="#024098"/>
<path d="M387 140.293C385.83 145.983 384.4 151.483 382.5 156.983C381.98 158.523 381.45 160.063 380.93 161.613C380.63 162.483 380.34 163.353 380.03 164.253C378.1 169.943 376.21 175.643 374.32 181.343C373.2 184.683 372.09 188.023 370.98 191.363C370.6 192.503 370.22 193.643 369.82 194.823C369.55 195.643 369.28 196.453 369 197.293C366.28 196.023 364.04 194.653 361.74 192.713C361.13 192.193 360.51 191.683 359.88 191.153C359.22 190.603 358.56 190.053 357.88 189.483C338.26 173.353 317.14 158.893 294 148.293C293.4 148.013 292.79 147.733 292.17 147.443C283.96 143.683 275.72 140.633 267 138.293C266.62 138.183 266.62 138.183 264.71 137.643C238.65 130.323 212.81 131.313 188 142.293C187.12 142.683 186.24 143.063 185.33 143.463C161.63 153.923 138.29 165.893 120.34 185.073C119 186.293 119 186.293 117 186.293C122.46 167.193 134.08 150.143 147 135.293C147.83 134.313 148.66 133.343 149.52 132.333C155.8 125.103 162.71 119.153 170.4 113.473C171.79 112.453 173.15 111.413 174.52 110.363C187.28 100.923 201.71 94.3631 217 90.2931C217.66 90.1131 218.33 89.9331 219.01 89.7531C278.95 74.7331 339.82 106.353 387 140.293Z" fill="#033D96"/>
<path d="M544 5.29297C561.83 7.56297 577.49 24.803 588.19 38.213C591.24 42.163 594.15 46.203 597 50.293C597.44 50.923 597.88 51.543 598.33 52.183C610.05 69.053 619.68 87.023 629 105.293C629.38 106.043 629.77 106.793 630.16 107.573C632.48 112.123 634.75 116.703 637 121.293C637.32 121.953 637.65 122.603 637.98 123.283C649.12 145.873 658.61 169.243 667.5 192.793C667.79 193.553 668.07 194.303 668.36 195.083C670 199.413 671.61 203.753 673.2 208.103C673.75 209.613 674.31 211.123 674.86 212.623C675.72 214.933 676.56 217.253 677.41 219.573C677.67 220.273 677.93 220.973 678.2 221.703C679.51 225.353 680.31 228.413 680 232.293C669.89 236.703 660.11 239.853 649 239.293C650.32 238.963 651.64 238.633 653 238.293C649.87 222.433 645.73 207.053 641 191.603C640.05 188.453 639.14 185.293 638.25 182.123C626.74 141.263 611.08 100.433 589.02 64.053C586 58.833 586 58.833 586 55.293C585.01 54.963 584.02 54.633 583 54.293C581.2 51.863 579.52 49.443 577.88 46.913C571.23 37.023 563.84 28.103 555.75 19.353C555.16 18.713 554.57 18.073 553.96 17.413C551.43 14.723 549.02 12.303 546.08 10.043C545.39 9.46297 544.71 8.88297 544 8.29297C544 7.30297 544 6.31297 544 5.29297Z" fill="#D42C04"/>
<path d="M587.32 51.7744C590.009 56.1346 590.681 57.2246 590.681 57.2246" stroke="#D42C04" stroke-width="10" stroke-linecap="square"/>
<path d="M155 260.294C155.05 260.914 155.05 260.914 155.3 264.044C158.3 299.714 166.39 335.654 179.17 369.134C179.82 370.814 180.46 372.504 181.09 374.194C185.69 386.414 190.27 398.554 196 410.294C196.9 412.194 197.8 414.094 198.7 416.004C199.7 418.094 200.69 420.194 201.69 422.294C202.16 423.304 202.64 424.304 203.13 425.344C203.59 426.294 204.04 427.244 204.51 428.234C204.92 429.084 205.33 429.944 205.74 430.824C207.05 433.394 208.49 435.834 210 438.294C211.28 440.524 212.55 442.754 213.81 444.984C217.13 450.804 220.51 456.574 224 462.294C224.24 462.704 224.24 462.704 225.47 464.794C231.17 474.204 238.23 482.764 245.51 491.004C249 494.984 249 494.984 249 498.294C251.5 499.984 251.5 499.984 254 501.294C253.34 501.624 252.68 501.954 252 502.294C229.62 488.794 213.94 468.144 200.28 446.334C199.48 445.064 198.69 443.804 197.88 442.544C189.27 429.034 182.2 414.594 175 400.294C174.73 399.774 174.73 399.774 173.39 397.114C155.46 361.374 141.6 323.814 129.19 285.854C128.97 285.194 128.75 284.534 128.53 283.854C127.92 282.004 127.33 280.154 126.73 278.294C126.39 277.254 126.06 276.214 125.71 275.134C125.02 272.394 124.86 270.104 125 267.294C134.62 263.494 144.55 259.984 155 260.294Z" fill="#062777"/>
<path d="M211.25 174.981C212.36 174.981 213.46 174.991 214.6 174.991C231.96 175.221 249.31 177.471 266 182.291C266.78 182.521 267.57 182.751 268.37 182.981C283.2 187.381 297.12 193.511 311 200.291C311.39 200.481 311.39 200.481 313.39 201.461C324.73 207.051 335.22 213.811 345.74 220.811C349.12 223.031 352.55 225.171 356 227.291C353.49 238.111 350.25 248.681 347 259.291C346.88 259.681 346.88 259.681 346.29 261.631C344.05 268.931 341.81 276.191 339 283.291C338 280.291 338 280.291 338.69 277.421C339.65 271.461 336.98 265.811 335 260.291C334.66 259.301 334.32 258.301 333.97 257.281C329.95 246.541 323.21 237.231 315 229.291C314.4 228.631 313.8 227.971 313.18 227.291C301.85 215.141 287.74 206.811 273.13 199.231C272.51 198.911 271.9 198.591 271.27 198.261C264.23 194.601 257.2 191.491 249.61 189.131C247.41 188.421 245.36 187.631 243.26 186.671C239.51 185.081 235.84 184.101 231.87 183.231C231.11 183.061 230.35 182.891 229.56 182.711C222.42 181.211 215.26 180.491 207.99 179.981C203.63 179.651 199.98 179.281 196 177.291C200.89 174.451 205.73 174.951 211.25 174.981Z" fill="#C51804"/>
<path d="M478 16.293C478 19.293 478 19.293 476.53 21.103C475.86 21.753 475.19 22.413 474.5 23.083C473.78 23.803 473.06 24.513 472.31 25.243C471.55 25.983 470.79 26.723 470 27.483C469.62 27.853 469.62 27.853 467.69 29.753C465.8 31.603 463.9 33.453 462 35.293C461.34 34.963 460.68 34.633 460 34.293C461.87 32.223 463.75 30.163 465.62 28.103C465.89 27.813 465.89 27.813 467.21 26.353C470.59 22.663 474.08 19.413 478 16.293Z" fill="#EE5D0C"/>
<path d="M56 241.293C56 245.113 54.53 246.153 51.93 248.773C51.38 249.313 50.82 249.863 50.25 250.413C49.71 250.973 49.17 251.523 48.62 252.083C45.83 254.853 43.87 256.573 40 257.293C40.93 256.143 41.87 254.993 42.81 253.853C43.33 253.213 43.86 252.583 44.39 251.923C46 250.293 46 250.293 49 249.293C49.33 248.303 49.66 247.313 50 246.293C51.88 244.453 53.93 242.923 56 241.293Z" fill="#E44A05"/>
<path d="M807 184.293C807.33 184.953 807.66 185.613 808 186.293C806.92 188.733 805.8 191.063 804.56 193.413C804.22 194.073 803.89 194.733 803.54 195.413C802.7 197.043 801.85 198.673 801 200.293C800.34 200.293 799.68 200.293 799 200.293C800 197.293 801 194.293 802 191.293C801.34 190.963 800.68 190.633 800 190.293C802.31 188.313 804.62 186.333 807 184.293Z" fill="#AB1D33"/>
<path d="M125 176.293C125.33 177.283 125.66 178.273 126 179.293C124.47 180.533 122.94 181.763 121.41 183.003C120 184.293 120 184.293 119 186.293C118.34 186.293 117.68 186.293 117 186.293C117.42 184.813 117.86 183.333 118.31 181.853C118.43 181.443 118.43 181.443 119.05 179.363C119.36 178.673 119.68 177.993 120 177.293C123 176.293 123 176.293 125 176.293Z" fill="#24438F"/>
<path d="M5 297.293C5.66 297.953 6.32 298.613 7 299.293C7.66 299.623 8.32 299.953 9 300.293C7.88 301.303 6.75 302.293 5.62 303.293C5 303.853 4.37 304.403 3.73 304.983C2 306.293 2 306.293 0 306.293C1.25 302.833 2.68 300.143 5 297.293Z" fill="#E44A05"/>
<path d="M256 180.293C261.47 181.313 266.76 182.363 272 184.293C271.01 184.953 270.02 185.613 269 186.293C266.88 185.863 266.88 185.863 264.56 184.983C261.72 183.913 258.96 182.973 256 182.293C256 181.633 256 180.973 256 180.293Z" fill="#C51804"/>
<path d="M669 201.293C672.81 204.063 673.07 207.923 674 212.293C673.34 212.293 672.68 212.293 672 212.293C669 205.793 669 205.793 669 201.293Z" fill="#C82B25"/>
<path d="M196 176C199.63 176 203.26 176 207 176C206.01 176.33 205.02 176.66 204 177C204 177.66 204 178.32 204 179C198.25 178.25 198.25 178.25 196 176Z" fill="#C51804"/>
<path d="M125 168.293C125.66 168.293 126.32 168.293 127 168.293C125.38 174.043 125.38 174.043 122 176.293C122.75 170.543 122.75 170.543 125 168.293Z" fill="#163688"/>
<path d="M544.429 6C546.3 6.304 546.3 6.304 548 6.8C547.529 7.856 547.057 8.912 546.571 10C545.393 9.208 544.214 8.416 543 7.6C543.471 7.072 543.943 6.544 544.429 6Z" fill="#D42C04"/>
<path d="M799 191.293C799 194.293 799 194.293 797 196.483C796.34 197.083 795.68 197.673 795 198.293C794.01 197.963 793.02 197.633 792 197.293C794.31 195.313 796.62 193.333 799 191.293Z" fill="#A01329"/>
<path d="M123 176.293C123.66 176.293 124.32 176.293 125 176.293C125.33 177.283 125.66 178.273 126 179.293C124.68 180.283 123.36 181.273 122 182.293C121.67 181.303 121.34 180.313 121 179.293C121.66 178.303 122.32 177.313 123 176.293Z" fill="#163B8F"/>
<path d="M158 123.293C158.99 123.623 159.98 123.953 161 124.293C159.38 126.003 157.71 127.663 156 129.293C155.34 129.293 154.68 129.293 154 129.293C155.15 126.823 156.05 125.243 158 123.293Z" fill="#193789"/>
<path d="M540.826 2.75821L543 3.5L545.146 4.82369L542.74 7.14715L540.826 2.75821Z" fill="#D42C04"/>
<path d="M541.666 4.66515L543.339 3.60279L545.344 4.26005L544.391 7.16802L541.666 4.66515Z" fill="#D42C04"/>
</svg>
